<svg width="32" height="32" viewBox="0 0 32 32" fill="none" xmlns="http://www.w3.org/2000/svg">
    <rect width="32" height="32" fill="none" />

    <g id="Frame 90">
        <g id="Frame 4534369">
            <g id="logo">
                <g id="v_1.1">
                    <g id="Group">
                        <path id="Vector"
                            d="M4.50635 11.3761C-0.0785794 17.6391 1.77415 24.4131 4.68096 27.3167C3.0772 25.7129 3.0772 23.1133 4.68096 21.5063C6.28471 19.9025 8.88435 19.9025 10.4913 21.5063C7.45519 18.4701 7.45519 13.5263 10.4913 10.4901C13.4305 7.551 18.1544 7.45723 21.21 10.2088C15.2347 4.56013 7.6977 7.02396 4.50959 11.3761H4.50635Z"
                            fill="url(#paint0_linear_0_1)" />
                        <path id="Vector_2"
                            d="M27.314 4.68274C21.0736 -1.56091 10.9207 -1.56091 4.68032 4.68274C-1.56011 10.9264 -1.56011 21.076 4.68032 27.3164C1.77674 24.4128 -0.0792178 17.6389 4.50895 11.3758C7.69706 7.02047 15.2341 4.55664 21.2094 10.2086C21.3096 10.2991 21.4098 10.3929 21.5068 10.4899C23.1106 12.0936 25.7102 12.0936 27.3172 10.4899C28.921 8.88613 28.921 6.2865 27.3172 4.67951L27.314 4.68274Z"
                            fill="url(#paint1_linear_0_1)" />
                    </g>
                    <g id="Group_2">
                        <path id="Vector_3"
                            d="M27.3143 4.68359C30.2179 7.58717 32.0739 14.3611 27.4857 20.6242C24.2976 24.9795 16.7606 27.4434 10.7853 21.7914C10.685 21.7009 10.5848 21.6071 10.4878 21.5101C8.88405 19.9063 6.28442 19.9063 4.67743 21.5101C3.07367 23.1139 3.07367 25.7135 4.67743 27.3205C10.9178 33.5609 21.0707 33.5609 27.3111 27.3205C33.5515 21.0801 33.5515 10.9272 27.3111 4.68683L27.3143 4.68359Z"
                            fill="url(#paint2_linear_0_1)" />
                        <path id="Vector_4"
                            d="M27.4856 20.6202C32.0705 14.3572 30.2178 7.5865 27.3142 4.67969C28.9179 6.28344 28.9179 8.88308 27.3142 10.4901C25.7104 12.0938 23.1108 12.0938 21.5038 10.4901C24.54 13.5262 24.54 18.4701 21.5038 21.5062C18.5647 24.4453 13.8407 24.5391 10.7852 21.7875C16.7604 27.4362 24.2974 24.9724 27.4856 20.6202Z"
                            fill="url(#paint3_linear_0_1)" />
                    </g>
                </g>
            </g>
        </g>
    </g>

    <defs>
        <linearGradient id="paint0_linear_0_1" x1="4.90627" y1="28.2033" x2="14.2803" y2="7.16894"
            gradientUnits="userSpaceOnUse">
            <stop stop-color="#0045FF" />
            <stop offset="1" stop-color="#40C4FF" />
        </linearGradient>
        <linearGradient id="paint1_linear_0_1" x1="1.28265" y1="17.6382" x2="26.5193" y2="3.0833"
            gradientUnits="userSpaceOnUse">
            <stop stop-color="#0045FF" />
            <stop offset="1" stop-color="#40C4FF" />
        </linearGradient>
        <linearGradient id="paint2_linear_0_1" x1="29.5559" y1="15.3252" x2="4.84969" y2="27.7447"
            gradientUnits="userSpaceOnUse">
            <stop stop-color="#0045FF" />
            <stop offset="1" stop-color="#40C4FF" />
        </linearGradient>
        <linearGradient id="paint3_linear_0_1" x1="29.8087" y1="6.0577" x2="15.9192" y2="25.7774"
            gradientUnits="userSpaceOnUse">
            <stop stop-color="#0045FF" />
            <stop offset="1" stop-color="#40C4FF" />
        </linearGradient>
    </defs>
</svg>